<?xml version="1.0" encoding="iso-8859-1"?>
<!-- Uploaded to: SVG Repo, www.svgrepo.com, Generator: SVG Repo Mixer Tools -->
<svg height="800px" width="800px" version="1.1" id="Layer_1" xmlns="http://www.w3.org/2000/svg" xmlns:xlink="http://www.w3.org/1999/xlink" 
	 viewBox="0 0 512.001 512.001" xml:space="preserve">
<path style="fill:#FF835D;" d="M495.05,167.252h-37.101c-9.361,0-16.95-7.589-16.95-16.95s7.589-16.95,16.95-16.95h37.101
	c9.361,0,16.95,7.589,16.95,16.95S504.411,167.252,495.05,167.252z"/>
<path style="fill:#FBB071;" d="M375.392,218.836c-5.147-32.563-20.234-62.142-43.629-85.538c-6.619-6.619-6.62-17.35-0.002-23.969
	l42.579-42.591c24.74-24.739,63.698-26.228,90.244-4.799c31.203,25.204,33.706,71.959,5.356,100.337h0.001l-65.813,65.892
	C394.398,237.909,377.561,232.55,375.392,218.836z"/>
<path style="fill:#F6D86E;" d="M4.965,460.09c-6.62-6.62-6.62-17.352,0-23.971l82.97-82.97c6.619-6.62,17.352-6.62,23.971,0
	c6.62,6.62,6.62,17.352,0,23.971l-82.97,82.97C22.319,466.71,11.584,466.711,4.965,460.09z"/>
<path style="fill:#FBB071;" d="M87.936,377.125c-6.615-6.615-6.62-17.354,0-23.972l56.693-56.693
	c6.617-6.619,17.349-6.62,23.969-0.002c29.355,29.346,77.116,29.346,106.472,0c29.346-29.356,29.346-77.117-0.002-106.465
	c-6.62-6.62-6.62-17.352,0-23.971l56.693-56.693c6.615-6.616,17.354-6.619,23.971,0c74.412,74.413,73.506,194.281-0.012,267.797
	C281.901,450.945,161.773,450.949,87.936,377.125z"/>
<path style="fill:#FF835D;" d="M355.733,109.327c-6.617-6.619-17.356-6.615-23.971,0l-56.693,56.693
	c-6.62,6.62-6.62,17.352,0,23.971c29.348,29.349,29.348,77.111,0.002,106.465c-5.742,5.741-12.195,10.341-19.07,13.835v119.102
	c36.556-6.655,71.518-24.07,99.72-52.272C429.239,303.608,430.145,183.741,355.733,109.327z"/>
<path style="fill:#F6D86E;" d="M144.63,320.432c-6.617-6.616-6.621-17.355-0.001-23.974l130.44-130.439
	c6.619-6.619,17.352-6.62,23.971,0c42.564,42.564,42.565,111.831,0.002,154.409c-0.001,0.001-0.002,0.002-0.005,0.003
	C256.468,362.988,187.202,362.989,144.63,320.432z M287.054,308.445h0.011H287.054z"/>
<path style="fill:#FBB071;" d="M299.039,166.02c-6.619-6.62-17.352-6.619-23.971,0L256,185.088v161.787
	c15.742-5.159,30.543-13.954,43.037-26.443c0.002-0.001,0.003-0.002,0.005-0.003C341.604,277.852,341.603,208.583,299.039,166.02z
	 M287.054,308.445h0.011H287.054z"/>
<circle style="fill:#633B2E;" cx="435.976" cy="109.025" r="18.477"/>
</svg>